<svg width="420" height="420" viewBox="0 0 420 420" fill="none" xmlns="http://www.w3.org/2000/svg">
<rect width="420" height="420" rx="210" fill="url(#paint0_linear_238_656)" fill-opacity="0.52"/>
<g clip-path="url(#clip0_238_656)">
<path fill-rule="evenodd" clip-rule="evenodd" d="M31.2655 145C24.4915 145 19 150.492 19 157.267C19 164.042 24.4914 169.534 31.2655 169.534H209.232H389.734C396.508 169.534 402 164.042 402 157.267C402 150.492 396.508 145 389.734 145H31.2655ZM93.78 177.448C87.0059 177.448 81.5145 182.94 81.5145 189.715V261.733C81.5145 268.508 87.0059 274 93.78 274C100.554 274 106.045 268.508 106.045 261.733V189.715C106.045 182.94 100.554 177.448 93.78 177.448ZM192.876 270.043V267.118L203.435 246.453H192.876V243.452H206.778V246.339L196.218 267.004H206.816L206.778 270.043H192.876ZM227.382 270.233V267.194C227.838 267.194 228.332 267.093 228.863 266.89C229.395 266.662 229.889 266.345 230.345 265.94C230.826 265.535 231.218 265.041 231.522 264.459C231.826 263.851 231.978 263.167 231.978 262.407V251.049C231.978 250.517 231.864 249.985 231.636 249.454C231.434 248.896 231.13 248.377 230.725 247.896C230.345 247.415 229.876 247.035 229.319 246.756C228.762 246.453 228.116 246.301 227.382 246.301V243.262C228.572 243.262 229.636 243.49 230.573 243.945C231.51 244.401 232.307 244.996 232.966 245.731C233.624 246.465 234.13 247.25 234.485 248.086C234.839 248.896 235.017 249.682 235.017 250.441V262.483C235.017 263.75 234.776 264.864 234.295 265.826C233.814 266.789 233.194 267.599 232.434 268.258C231.674 268.916 230.851 269.41 229.965 269.739C229.079 270.068 228.218 270.233 227.382 270.233ZM225.293 270.233C224.533 270.233 223.71 270.068 222.824 269.739C221.963 269.41 221.14 268.916 220.355 268.258C219.57 267.599 218.924 266.789 218.418 265.826C217.937 264.864 217.696 263.75 217.696 262.483V250.441C217.696 249.682 217.874 248.884 218.228 248.048C218.583 247.212 219.089 246.44 219.747 245.731C220.406 244.996 221.203 244.401 222.14 243.945C223.103 243.49 224.166 243.262 225.331 243.262V246.301C224.622 246.301 223.976 246.453 223.394 246.756C222.837 247.035 222.356 247.428 221.95 247.934C221.571 248.415 221.267 248.934 221.039 249.492C220.836 250.023 220.735 250.543 220.735 251.049V262.407C220.735 263.167 220.887 263.838 221.191 264.421C221.52 265.003 221.912 265.51 222.368 265.94C222.849 266.345 223.343 266.662 223.85 266.89C224.381 267.093 224.862 267.194 225.293 267.194V270.233ZM261.534 270.043L246.113 245.389V243.452H248.734L263.015 266.282V270.043H261.534ZM246.113 270.043V248.998H246.417L249.151 253.404V270.043H246.113ZM262.711 262.635L259.977 258.153V243.452H263.015V262.635H262.711ZM274.156 270.043V243.452H287.982V246.453H277.194V255.304H284.411V258.305H277.194V267.042H287.982V270.043H274.156ZM162.748 186.549H159.336C155.874 186.747 153.03 188.082 150.804 190.556C148.579 192.979 146.972 195.749 145.983 198.865C144.994 201.982 144.499 205.172 144.499 208.436C144.499 211.701 144.969 214.891 145.908 218.008C146.897 221.124 148.505 223.919 150.731 226.392C153.006 228.815 155.874 230.126 159.336 230.324H160.746H187.972C189.308 230.275 190.42 229.804 191.31 228.914C192.251 227.975 192.744 226.837 192.794 225.502C192.794 224.116 192.324 222.929 191.385 221.94C190.495 220.951 189.357 220.431 187.972 220.382H161.858C159.979 220.283 158.421 219.566 157.185 218.23C155.948 216.895 155.033 215.386 154.44 213.704C153.896 211.973 153.624 210.217 153.624 208.436C153.624 206.656 153.896 204.925 154.44 203.243C155.033 201.512 155.948 199.978 157.185 198.643C158.421 197.307 159.979 196.59 161.858 196.491H187.972C190.939 196.244 192.546 194.636 192.794 191.669C192.794 190.284 192.324 189.096 191.385 188.107C190.495 187.118 189.357 186.599 187.972 186.549H162.748ZM191.162 211.627C192.151 210.687 192.646 209.525 192.646 208.14C192.646 206.755 192.151 205.592 191.162 204.653C190.222 203.663 189.06 203.169 187.675 203.169H165.271C163.886 203.169 162.699 203.639 161.71 204.578C160.77 205.568 160.3 206.755 160.3 208.14C160.3 209.525 160.77 210.712 161.71 211.701C162.699 212.641 163.886 213.111 165.271 213.111H187.675C189.06 213.111 190.222 212.616 191.162 211.627ZM225.662 203.243C226.206 201.512 227.096 199.978 228.332 198.643C229.618 197.307 231.201 196.59 233.08 196.491H257.562C258.947 196.491 260.134 196.046 261.123 195.156C262.161 194.216 262.681 193.054 262.681 191.669C262.384 188.552 260.678 186.846 257.562 186.549H231.893H230.484C227.961 186.599 225.712 187.39 223.733 188.923C221.804 190.457 220.246 192.312 219.059 194.488C217.922 196.615 217.081 198.865 216.537 201.24C215.993 203.614 215.721 206.013 215.721 208.436C215.721 211.701 216.19 214.891 217.13 218.008C218.12 221.124 219.727 223.919 221.953 226.392C224.178 228.815 227.022 230.126 230.484 230.324H233.896H257.562C258.947 230.324 260.134 229.879 261.123 228.988C262.112 228.049 262.632 226.887 262.681 225.502C262.384 222.385 260.678 220.679 257.562 220.382H233.08C231.201 220.283 229.618 219.59 228.332 218.304C227.047 216.969 226.132 215.436 225.587 213.704C225.093 211.973 224.846 210.217 224.846 208.436C224.846 206.656 225.118 204.925 225.662 203.243ZM293.991 186.846C293.051 185.906 291.914 185.411 290.578 185.362C289.193 185.362 288.006 185.832 287.017 186.772C286.028 187.662 285.509 188.8 285.459 190.185V226.54C285.459 227.925 285.953 229.087 286.943 230.028C287.982 230.917 289.193 231.363 290.578 231.363C293.545 231.115 295.178 229.508 295.475 226.54V212.517H319.585V226.54C319.585 227.925 320.079 229.087 321.068 230.028C322.107 230.917 323.319 231.363 324.704 231.363C327.671 231.115 329.304 229.508 329.6 226.54V190.185C329.55 188.849 329.056 187.736 328.117 186.846C327.177 185.906 326.039 185.411 324.704 185.362C323.319 185.362 322.132 185.832 321.143 186.772C320.154 187.662 319.634 188.8 319.585 190.185V202.575H295.475V190.185C295.425 188.849 294.93 187.736 293.991 186.846ZM302.255 258.963H359.269V262.92H302.255V258.963ZM179.676 258.963H122.663V262.92H179.676V258.963Z" fill="url(#paint1_linear_238_656)"/>
</g>
<defs>
<linearGradient id="paint0_linear_238_656" x1="-89.5" y1="318.5" x2="525" y2="76.5" gradientUnits="userSpaceOnUse">
<stop stop-color="#EE0979"/>
<stop offset="0.9849" stop-color="#FF6A00"/>
</linearGradient>
<linearGradient id="paint1_linear_238_656" x1="556.001" y1="113.624" x2="-17.8726" y2="290.647" gradientUnits="userSpaceOnUse">
<stop stop-color="#96C93D" stop-opacity="0.76"/>
<stop offset="0.937539" stop-color="#00B09B"/>
</linearGradient>
<clipPath id="clip0_238_656">
<rect width="383" height="129" fill="white" transform="translate(19 145)"/>
</clipPath>
</defs>
</svg>

